Coordinates
version=1
nRows=8
nColumns=63
inDegrees=yes

Units are S.I. units (second, meters, Newtons, ...)
If the header above contains a line with 'inDegrees', this indicates whether rotational values are in degrees (yes) or radians (no).

endheader
time	pelvis_tilt	pelvis_list	pelvis_rotation	pelvis_tx	pelvis_ty	pelvis_tz	hip_flexion_r	hip_adduction_r	hip_rotation_r	knee_angle_r	knee_angle_r_beta	ankle_angle_r	subtalar_angle_r	mtp_angle_r	hip_flexion_l	hip_adduction_l	hip_rotation_l	knee_angle_l	knee_angle_l_beta	ankle_angle_l	subtalar_angle_l	mtp_angle_l	L5_S1_Flex_Ext	L5_S1_Lat_Bending	L5_S1_axial_rotation	L4_L5_Flex_Ext	L4_L5_Lat_Bending	L4_L5_axial_rotation	L3_L4_Flex_Ext	L3_L4_Lat_Bending	L3_L4_axial_rotation	L2_L3_Flex_Ext	L2_L3_Lat_Bending	L2_L3_axial_rotation	L1_L2_Flex_Ext	L1_L2_Lat_Bending	L1_L2_axial_rotation	L1_T12_Flex_Ext	L1_T12_Lat_Bending	L1_T12_axial_rotation	Abs_r3	Abs_r2	Abs_r1	Abs_t1	Abs_t2	neck_flexion	neck_bending	neck_rotation	arm_flex_r	arm_add_r	arm_rot_r	elbow_flex_r	pro_sup_r	wrist_flex_r	wrist_dev_r	arm_flex_l	arm_add_l	arm_rot_l	elbow_flex_l	pro_sup_l	wrist_flex_l	wrist_dev_l
2.383333	-1.750860	2.555389	100.585747	0.187877	0.857195	0.548780	-12.220894	0.542567	-5.699944	3.033920	0.052952	25.260723	-5.956066	0.000000	-9.660360	0.352082	23.359300	0.695765	0.012143	24.370439	-15.063857	0.000000	-0.058310	0.050047	-1.893376	-0.108287	0.066563	-2.011712	-0.095797	0.121685	-2.011712	-0.066642	0.121685	-1.656704	-0.054147	0.102056	-1.538368	-0.033318	0.077523	-1.420032	-0.416502	0.566143	-10.530390	0.000000	0.000000	26.857630	-1.282800	-2.668963	1.403091	-12.206814	142.490891	5.850923	5.115944	-0.374967	-2.883089	-2.203963	-10.447075	130.075612	7.473598	5.186599	-7.477825	-15.111014
2.400000	-1.790184	2.541616	100.462076	0.187611	0.857127	0.548489	-12.323940	0.474225	-5.313226	2.795514	0.048791	25.042378	-6.299749	0.000000	-9.686128	0.432240	23.250185	0.686733	0.011986	24.471045	-15.005891	0.000000	-0.064384	0.059307	-1.880719	-0.119567	0.078878	-1.998264	-0.105776	0.144199	-1.998264	-0.073584	0.144199	-1.645629	-0.059787	0.120939	-1.528084	-0.036789	0.091866	-1.410539	-0.459887	0.670891	-10.459997	0.000000	0.000000	26.942375	-1.329579	-2.205887	1.448296	-12.301757	141.922065	6.084614	5.133669	0.053638	-2.587071	-2.190907	-10.409744	129.033603	7.699547	5.308310	-7.427326	-15.162191
2.416667	-1.797742	2.521821	100.322838	0.187323	0.857035	0.548258	-12.392857	0.428128	-4.954432	2.595041	0.045292	24.844653	-6.587951	0.000000	-9.697742	0.486470	23.178813	0.678557	0.011843	24.537419	-15.032958	0.000000	-0.073049	0.073987	-1.868033	-0.135659	0.098403	-1.984785	-0.120012	0.179893	-1.984785	-0.083487	0.179893	-1.634529	-0.067833	0.150875	-1.517777	-0.041740	0.114606	-1.401025	-0.521779	0.836958	-10.389440	0.000000	0.000000	27.035724	-1.349342	-1.643223	1.507002	-12.421758	141.539729	6.295222	5.128873	0.446640	-2.318495	-2.175234	-10.364900	127.631155	7.977159	5.541950	-7.332648	-15.202997
2.433333	-1.776433	2.487499	100.167934	0.187036	0.856922	0.548076	-12.415691	0.399152	-4.655800	2.443541	0.042648	24.686913	-6.775999	0.000000	-9.686779	0.518338	23.087522	0.671597	0.011722	24.588330	-15.064540	0.000000	-0.083019	0.093050	-1.852208	-0.154175	0.123756	-1.967971	-0.136392	0.226241	-1.967971	-0.094883	0.226241	-1.620682	-0.077092	0.189747	-1.504919	-0.047437	0.144134	-1.389156	-0.592997	1.052598	-10.301423	0.000000	0.000000	27.133805	-1.340798	-1.011287	1.558338	-12.563043	141.199486	6.469771	5.127397	0.805385	-2.076914	-2.147601	-10.290300	126.334127	8.225849	5.677395	-7.195140	-15.231334
2.450000	-1.727997	2.437950	100.003161	0.186766	0.856790	0.547934	-12.390999	0.387978	-4.436016	2.346073	0.040947	24.580140	-6.849695	0.000000	-9.651658	0.527549	22.996960	0.666217	0.011628	24.619913	-15.118065	0.000000	-0.093567	0.115590	-1.833307	-0.173764	0.153734	-1.947889	-0.153722	0.281044	-1.947889	-0.106938	0.281044	-1.604144	-0.086887	0.235710	-1.489562	-0.053464	0.179048	-1.374980	-0.668343	1.307572	-10.196304	0.000000	0.000000	27.234663	-1.307907	-0.347484	1.599097	-12.717057	140.957826	6.599033	5.113723	1.127518	-1.875576	-2.108911	-10.189985	125.226543	8.436306	5.750727	-7.077271	-15.254854
2.466667	-1.656687	2.381874	99.852326	0.186503	0.856652	0.547818	-12.329184	0.398602	-4.291930	2.308419	0.040290	24.522684	-6.849002	0.000000	-9.601676	0.511666	22.913453	0.660447	0.011527	24.639308	-15.174287	0.000000	-0.104799	0.140479	-1.812859	-0.194622	0.186837	-1.926162	-0.172174	0.341561	-1.926162	-0.119775	0.341561	-1.586251	-0.097316	0.286465	-1.472948	-0.059882	0.217602	-1.359644	-0.748570	1.589128	-10.082575	0.000000	0.000000	27.338173	-1.260535	0.313488	1.618657	-12.877408	140.755145	6.692565	5.112413	1.363063	-1.732392	-2.051140	-10.080088	124.259526	8.623648	5.860459	-6.988378	-15.260018
2.483333	-1.568009	2.318936	99.727429	0.186248	0.856500	0.547692	-12.236673	0.430148	-4.214820	2.325529	0.040588	24.506045	-6.808892	0.000000	-9.538461	0.473084	22.827776	0.655544	0.011441	24.669512	-15.197319	0.000000	-0.114657	0.166278	-1.792172	-0.212930	0.221150	-1.904183	-0.188370	0.404289	-1.904183	-0.131042	0.404289	-1.568151	-0.106471	0.339075	-1.456140	-0.065515	0.257565	-1.344129	-0.818985	1.880975	-9.967526	0.000000	0.000000	27.434896	-1.213283	0.934679	1.607377	-13.032222	140.629712	6.744566	5.107400	1.526686	-1.648085	-1.982210	-9.959654	123.571995	8.763994	6.000354	-6.955219	-15.237743
2.500000	-1.466189	2.259638	99.621036	0.186027	0.856343	0.547540	-12.123653	0.476979	-4.261834	2.401774	0.041919	24.556828	-6.630983	0.000000	-9.478537	0.413447	22.785617	0.649306	0.011333	24.696374	-15.266924	0.000000	-0.123334	0.192099	-1.767838	-0.229043	0.255492	-1.878328	-0.202625	0.467069	-1.878328	-0.140958	0.467069	-1.546858	-0.114528	0.391728	-1.436368	-0.070473	0.297561	-1.325878	-0.880961	2.173062	-9.832183	0.000000	0.000000	27.519525	-1.171037	1.501612	1.557825	-13.173124	140.600079	6.744833	5.134172	1.626107	-1.621239	-1.896135	-9.825092	123.390993	8.833729	6.140822	-7.023242	-15.164458
